<?xml version="1.0" encoding="utf-8"?>
<!-- Generator: Adobe Illustrator 16.0.4, SVG Export Plug-In . SVG Version: 6.00 Build 0)  -->
<!DOCTYPE svg PUBLIC "-//W3C//DTD SVG 1.1//EN" "http://www.w3.org/Graphics/SVG/1.1/DTD/svg11.dtd">
<svg version="1.1" id="Layer_1" xmlns="http://www.w3.org/2000/svg" xmlns:xlink="http://www.w3.org/1999/xlink" x="0px" y="0px"
	 width="168.513px" height="38.035px" viewBox="0 0 168.513 38.035" enable-background="new 0 0 168.513 38.035"
	 xml:space="preserve">
<g>
	<path fill="#FDB913" d="M19.943,35.577c0,0.161,0.131,0.292,0.292,0.292c2.899,0,4.958-2.934,4.958-5.834
		c0-3.221,2.612-5.833,5.833-5.833c2.901,0,5.834-2.06,5.834-4.959c0-0.161-0.129-0.291-0.292-0.291h-5.542
		c-6.12,0-11.082,4.962-11.082,11.083V35.577z"/>
	<path fill="#FDB913" d="M2.151,18.953c-0.161,0-0.292,0.131-0.292,0.292c0,2.899,2.934,4.958,5.834,4.958
		c3.221,0,5.833,2.612,5.833,5.833c0,2.9,2.06,5.834,4.959,5.834c0.161,0,0.291-0.132,0.291-0.293v-5.541
		c0-6.121-4.962-11.083-11.083-11.083H2.151z"/>
	<path fill="#FDB913" d="M18.777,1.161c0-0.161-0.131-0.292-0.292-0.292c-2.899,0-4.957,2.934-4.957,5.833
		c0,3.221-2.613,5.833-5.834,5.833c-2.9,0-5.833,2.059-5.833,4.958c0,0.161,0.129,0.291,0.292,0.291h5.542
		c6.121,0,11.083-4.962,11.083-11.083V1.161z"/>
	<path fill="#F6862D" d="M36.568,17.786c0.161,0,0.292-0.131,0.292-0.292c0-2.9-2.933-4.958-5.833-4.958
		c-3.222,0-5.834-2.612-5.834-5.833c0-2.9-2.06-5.834-4.958-5.834c-0.161,0-0.291,0.131-0.291,0.292v5.542
		c0,6.121,4.962,11.083,11.083,11.083H36.568z"/>
	<path fill="#FFFFFF" d="M53.8,25.11h2.465l-5.49-15.684H48.31L42.821,25.11h2.464l1.323-3.787h5.87L53.8,25.11z M47.37,19.104l2.173-6.228
		l2.174,6.228H47.37z M61.889,25.334c2.51,0,4.279-1.12,4.301-3.405c0-2.196-1.052-3.092-3.159-3.63l-2.128-0.538
		c-0.626-0.157-1.299-0.381-1.299-1.076c0-0.918,0.941-1.188,1.658-1.188c1.075,0,1.949,0.426,2.129,1.435h2.464
		c-0.224-2.576-1.949-3.697-4.437-3.697c-2.353,0-4.19,1.121-4.19,3.407c0,2.217,1.412,3.069,2.936,3.45l2.196,0.561
		c0.762,0.178,1.457,0.425,1.457,1.21c0,0.939-0.874,1.208-1.905,1.208c-1.254,0-2.353-0.516-2.531-1.657h-2.421
		C57.094,24.058,59.222,25.334,61.889,25.334 M71.344,15.766h2.846v-2.218h-2.846v-2.621h-2.353v2.621h-1.637v2.218h1.637v6.588
		c0,1.814,0.83,2.756,2.756,2.756h2.443v-2.263h-1.77c-0.919,0-1.076-0.246-1.076-1.098V15.766z M82.66,15.633v-2.286h-0.896
		c-1.211,0-2.353,0.649-2.688,1.321v-1.12h-2.354V25.11h2.354v-6.925c0-1.748,1.008-2.553,2.465-2.553H82.66z M91.085,20.495
		c0,1.746-1.009,2.575-2.466,2.575s-2.465-0.829-2.465-2.575v-2.421c0-1.747,1.008-2.578,2.465-2.578s2.466,0.831,2.466,2.578
		V20.495z M83.801,20.539c0,3.81,2.802,4.795,4.818,4.795c2.018,0,4.818-0.985,4.818-4.795v-2.51c0-3.808-2.801-4.795-4.818-4.795
		c-2.017,0-4.818,0.987-4.818,4.795V20.539z M101.235,25.11h6.43c3.138,0,4.819-1.748,4.819-4.526c0-1.39-0.583-2.688-1.927-3.497
		c1.008-0.716,1.545-1.858,1.545-3.181c0-2.711-1.701-4.48-4.817-4.48h-6.05V25.11z M107.285,11.8c1.456,0,2.374,0.74,2.374,2.106
		c0,1.367-0.918,2.106-2.374,2.106h-3.652V11.8H107.285z M107.665,18.389c1.48,0,2.376,0.739,2.376,2.173
		c0,1.435-0.896,2.173-2.376,2.173h-4.032v-4.346H107.665z M119.25,15.497c1.367,0,2.33,0.741,2.443,2.242v0.022
		c-1.949,0.135-3.475,0.247-4.862,0.672c-1.928,0.604-2.51,2.151-2.51,3.474c0,2.375,1.837,3.428,3.942,3.428
		c1.525,0,2.713-0.426,3.451-1.321v1.098h2.354v-7.082c0-3.808-2.802-4.795-4.818-4.795c-1.859,0-4.347,0.829-4.749,3.899h2.396
		C117.21,16.036,118.085,15.497,119.25,15.497 M118.645,23.07c-1.255,0-1.971-0.426-1.971-1.365c0-0.584,0.269-0.896,0.559-1.077
		c0.853-0.515,2.42-0.65,4.481-0.783v0.65C121.714,22.645,119.989,23.07,118.645,23.07 M129.086,9.426h-2.353v12.928
		c0,1.814,0.829,2.756,2.756,2.756h1.03v-2.263h-0.358c-0.918,0-1.075-0.246-1.075-1.098V9.426z M135.763,15.766h2.846v-2.218
		h-2.846v-2.621h-2.353v2.621h-1.635v2.218h1.635v6.588c0,1.814,0.829,2.756,2.756,2.756h2.442v-2.263h-1.771
		c-0.919,0-1.075-0.246-1.075-1.098V15.766z M143.38,9.426h-2.352v2.396h2.352V9.426z M143.38,13.548h-2.352V25.11h2.352V13.548z
		 M155.661,21.167h-2.374c-0.225,1.277-1.166,1.903-2.422,1.903c-1.455,0-2.464-0.829-2.464-2.575v-2.421
		c0-1.747,1.009-2.578,2.464-2.578c1.256,0,2.174,0.628,2.398,1.906h2.397c-0.291-3.294-2.89-4.168-4.796-4.168
		c-2.016,0-4.816,0.987-4.816,4.795v2.51c0,3.81,2.801,4.795,4.816,4.795C152.771,25.334,155.37,24.461,155.661,21.167
		 M162.226,25.334c2.51,0,4.279-1.12,4.303-3.405c0-2.196-1.054-3.092-3.161-3.63l-2.127-0.538
		c-0.628-0.157-1.301-0.381-1.301-1.076c0-0.918,0.941-1.188,1.658-1.188c1.076,0,1.949,0.426,2.129,1.435h2.465
		c-0.225-2.576-1.949-3.697-4.436-3.697c-2.354,0-4.191,1.121-4.191,3.407c0,2.217,1.412,3.069,2.937,3.45l2.194,0.561
		c0.762,0.178,1.457,0.425,1.457,1.21c0,0.939-0.874,1.208-1.903,1.208c-1.255,0-2.353-0.516-2.533-1.657h-2.42
		C157.431,24.058,159.56,25.334,162.226,25.334"/>
</g>
</svg>
