<?xml version="1.0" encoding="utf-8"?>
<!-- Generator: Adobe Illustrator 19.0.0, SVG Export Plug-In . SVG Version: 6.00 Build 0)  -->
<svg version="1.1" xmlns="http://www.w3.org/2000/svg" xmlns:xlink="http://www.w3.org/1999/xlink" x="0px" y="0px"
	 viewBox="0 0 122.3 117.3" style="enable-background:new 0 0 122.3 117.3;" xml:space="preserve">
<style type="text/css">
	.st0{fill:#FFFFFF;}
</style>
<g id="Layer_2">
</g>
<g id="Layer_1">
	<g id="XMLID_2_">
		<g id="XMLID_138_">
			<path id="XMLID_9_" class="st0" d="M91.1,47.8c-0.2,0-0.4,0-0.7-0.1l-30-6.8c-1.2-0.3-2.1-1.3-2.3-2.5c-0.2-1.2,0.4-2.4,1.5-3
				l6.4-3.6L48.3,6.6C48.2,6.4,48.1,6.2,48,6h-0.6L33.8,25.7L47.2,35l4.3-5.3c1-1.3,2.9-1.5,4.2-0.5c1.3,1,1.5,2.9,0.5,4.2l-6,7.5
				c-1,1.2-2.7,1.5-4,0.6L27.9,29c-0.7-0.5-1.1-1.1-1.3-1.9s0-1.6,0.5-2.3L43.4,1.3C43.9,0.5,44.8,0,45.8,0h33.5c1,0,2,0.5,2.5,1.4
				l8.8,14.1l6.9-4.3c1-0.6,2.4-0.6,3.4,0.1c1,0.7,1.4,2,1.1,3.2l-8,30.9C93.6,46.9,92.4,47.8,91.1,47.8z M69.3,36.7l19.6,4.5
				l5.4-20.9l-3.1,1.9c-1.4,0.9-3.3,0.4-4.1-1L77.7,6H55.3l17.5,24.9c0.5,0.7,0.7,1.6,0.5,2.4c-0.2,0.8-0.7,1.5-1.4,2L69.3,36.7z"/>
		</g>
		<g id="XMLID_137_">
			<path id="XMLID_6_" class="st0" d="M83.4,117.3c-0.8,0-1.5-0.3-2.1-0.9L58.5,94.1c-1.2-1.1-1.2-3-0.1-4.2l20.9-22.6
				c0.8-0.9,2.2-1.2,3.3-0.8c1.2,0.5,1.9,1.6,1.9,2.8l0,7.4l31-2.5c0,0,0,0,0.1,0l0.5-0.8l-10.3-21.7l-14.7,7.1l2.5,6.3
				c0.6,1.5-0.2,3.3-1.7,3.9c-1.5,0.6-3.3-0.2-3.9-1.7l-3.5-8.9c-0.6-1.5,0.1-3.1,1.5-3.8l19.9-9.6c0.7-0.3,1.5-0.4,2.3-0.1
				c0.8,0.3,1.4,0.8,1.7,1.5L122,72.3c0.4,0.9,0.4,1.9-0.1,2.8l-16.7,29c-0.5,0.9-1.5,1.5-2.5,1.5l-16.6,0.5l0.3,8.1
				c0,1.2-0.7,2.4-1.8,2.8C84.2,117.2,83.8,117.3,83.4,117.3z M64.8,91.9l15.4,15.1l-0.1-3.6c-0.1-1.7,1.2-3,2.9-3.1l17.9-0.6
				l11-19.1L81.6,83c-0.8,0.1-1.7-0.2-2.3-0.8c-0.6-0.6-1-1.4-1-2.2l0-2.9L64.8,91.9z"/>
		</g>
		<g id="XMLID_136_">
			<path id="XMLID_3_" class="st0" d="M49.3,108.6c-0.1,0-0.1,0-0.2,0l-28.5-2c-1-0.1-1.9-0.6-2.4-1.5l-1.8-3c0,0,0,0,0,0L1.2,76.3
				c-0.5-0.9-0.6-2-0.1-2.9l7.7-14.7l-7.2-3.7c-1.1-0.6-1.7-1.7-1.6-3c0.1-1.2,1-2.2,2.2-2.6l30.7-8.9c1.6-0.5,3.2,0.4,3.7,2
				l9.4,29.3c0.4,1.2,0,2.5-1,3.2s-2.3,0.9-3.4,0.3l-6.4-3.6l-12.8,28.7l0.2,0.3l23.9,1.7l1.1-16.3l-6.8-1c-1.6-0.2-2.8-1.7-2.6-3.4
				c0.2-1.6,1.8-2.8,3.4-2.6l9.5,1.3c1.6,0.2,2.7,1.6,2.6,3.2l-1.5,22.1c-0.1,0.8-0.4,1.5-1,2.1C50.7,108.3,50,108.6,49.3,108.6z
				 M7.2,74.6L18.7,94l12.5-27.9c0.3-0.8,1-1.4,1.8-1.6c0.8-0.3,1.7-0.2,2.4,0.2l2.5,1.4L31.7,47L11,53l3.2,1.7c1.5,0.8,2,2.6,1.3,4
				L7.2,74.6z"/>
		</g>
	</g>
</g>
</svg>
