<?xml version="1.0" encoding="utf-8"?>
<!-- Generator: Adobe Illustrator 19.0.0, SVG Export Plug-In . SVG Version: 6.00 Build 0)  -->
<svg version="1.1" id="Layer_1" xmlns="http://www.w3.org/2000/svg" xmlns:xlink="http://www.w3.org/1999/xlink" x="0px" y="0px"
	 viewBox="0 0 101.7 137.2" style="enable-background:new 0 0 101.7 137.2;" xml:space="preserve">
<style type="text/css">
	.st0{fill:none;stroke:#FFFFFF;stroke-width:6;stroke-linecap:round;stroke-linejoin:round;stroke-miterlimit:10;}
	
		.st1{fill:none;stroke:#FFFFFF;stroke-width:6;stroke-linecap:round;stroke-linejoin:round;stroke-miterlimit:10;stroke-dasharray:235,15;}
	
		.st2{fill:none;stroke:#FFFFFF;stroke-width:6;stroke-linecap:round;stroke-linejoin:round;stroke-miterlimit:10;stroke-dasharray:50,15;}
</style>
<g id="XMLID_2_">
	<path id="XMLID_6_" class="st0" d="M86.7,134.2H15c-6.6,0-12-5.4-12-12v-52c0-6.6,5.4-12,12-12h71.7c6.6,0,12,5.4,12,12v52
		C98.7,128.8,93.3,134.2,86.7,134.2z"/>
	<path id="XMLID_5_" class="st1" d="M23,57.8V32.1C23,16,33.3,3,49.4,3s26.3,13,26.3,29.1v25.7"/>
	<path id="XMLID_4_" class="st2" d="M34.5,56.7V32.5c0-10.3,4.6-18.6,14.8-18.6s14.8,8.3,14.8,18.6v23.7"/>
	<path id="XMLID_3_" class="st1" d="M42.5,95.7c-1.5-1.6-2.3-3.8-2.3-6.1c0-5.1,4.1-9.2,9.2-9.2s9.2,4.1,9.2,9.2
		c0,4-2.6,7.4-6.1,8.7v17.1"/>
</g>
</svg>
