<?xml version="1.0" encoding="utf-8"?>
<!-- Generator: Adobe Illustrator 16.0.0, SVG Export Plug-In . SVG Version: 6.00 Build 0)  -->
<!DOCTYPE svg PUBLIC "-//W3C//DTD SVG 1.1//EN" "http://www.w3.org/Graphics/SVG/1.1/DTD/svg11.dtd">
<svg version="1.1" id="Layer_1" xmlns="http://www.w3.org/2000/svg" xmlns:xlink="http://www.w3.org/1999/xlink" x="0px" y="0px"
	 width="4635.069px" height="575.58px" viewBox="0 0 4635.069 575.58" enable-background="new 0 0 4635.069 575.58"
	 xml:space="preserve">
<rect x="2370.66" y="13.639" opacity="0.3" fill="#1A81C6" width="1640.35" height="445.339"/>
<rect x="4010.994" y="14.14" opacity="0.35" fill="#1A81C6" width="617.2" height="444.839"/>
<g>
	<polyline fill="#D1E6F4" points="706.178,14.639 90.66,14.639 90.66,458.979 706.178,458.979 706.178,457.976 705.661,457.976 
		705.661,16.139 706.178,16.139 706.178,14.639 	"/>
	<polyline fill="#C6DFF1" points="2371.178,13.639 706.178,13.639 706.178,458.475 2371.178,458.475 2371.178,13.639 	"/>
	<polyline fill="#A3CDE8" points="706.178,16.139 705.661,16.139 705.661,457.976 706.178,457.976 706.178,16.139 	"/>
	<text transform="matrix(1 0 0 1 22.6797 478.0449)" fill="#6F6E6E" font-family="'Avenir-Light'" font-size="42">0</text>
	<text transform="matrix(1 0 0 1 0 367.5)" fill="#6F6E6E" font-family="'Avenir-Light'" font-size="42">100</text>
	<text transform="matrix(1 0 0 1 0 256.9561)" fill="#6F6E6E" font-family="'Avenir-Light'" font-size="42">200</text>
	<text transform="matrix(1 0 0 1 0 146.4121)" fill="#6F6E6E" font-family="'Avenir-Light'" font-size="42">300</text>
	<text transform="matrix(1 0 0 1 0 35.8677)" fill="#6F6E6E" font-family="'Avenir-Light'" font-size="42">400</text>
	<path fill="#FFFFFF" d="M4616.08,348.455h18.989v-5h-18.989V348.455z M4576.06,348.455h20.011v-5h-20.011V348.455z
		 M4536.038,348.455h20.011v-5h-20.011V348.455z M4496.017,348.455h20.011v-5h-20.011V348.455z M4455.995,348.455h20.011v-5h-20.011
		V348.455z M4415.975,348.455h20.01v-5h-20.01V348.455z M4375.953,348.455h20.01v-5h-20.01V348.455z M4335.932,348.455h20.01v-5
		h-20.01V348.455z M4295.91,348.455h20.01v-5h-20.01V348.455z M4255.889,348.455h20.01v-5h-20.01V348.455z M4215.867,348.455h20.01
		v-5h-20.01V348.455z M4175.846,348.455h20.011v-5h-20.011V348.455z M4135.824,348.455h20.011v-5h-20.011V348.455z
		 M4095.803,348.455h20.011v-5h-20.011V348.455z M4055.781,348.455h20.011v-5h-20.011V348.455z M4015.76,348.455h20.012v-5h-20.012
		V348.455z M3975.738,348.455h20.012v-5h-20.012V348.455z M3935.718,348.455h20.011v-5h-20.011V348.455z M3895.696,348.455h20.011
		v-5h-20.011V348.455z M3855.675,348.455h20.011v-5h-20.011V348.455z M3815.653,348.455h20.011v-5h-20.011V348.455z
		 M3775.632,348.455h20.011v-5h-20.011V348.455z M3735.61,348.455h20.011v-5h-20.011V348.455z M3695.589,348.455h20.011v-5h-20.011
		V348.455z M3655.568,348.455h20.01v-5h-20.01V348.455z M3615.547,348.455h20.01v-5h-20.01V348.455z M3575.525,348.455h20.01v-5
		h-20.01V348.455z M3535.504,348.455h20.011v-5h-20.011V348.455z M3495.482,348.455h20.011v-5h-20.011V348.455z M3455.461,348.455
		h20.011v-5h-20.011V348.455z M3415.439,348.455h20.011v-5h-20.011V348.455z M3375.418,348.455h20.011v-5h-20.011V348.455z
		 M3335.396,348.455h20.011v-5h-20.011V348.455z M3295.375,348.455h20.011v-5h-20.011V348.455z M3255.354,348.455h20.012v-5h-20.012
		V348.455z M3215.332,348.455h20.012v-5h-20.012V348.455z M3175.312,348.455h20.011v-5h-20.011V348.455z M3135.29,348.455h20.011v-5
		h-20.011V348.455z M3095.269,348.455h20.011v-5h-20.011V348.455z M3055.247,348.455h20.011v-5h-20.011V348.455z M3015.226,348.455
		h20.011v-5h-20.011V348.455z M2975.204,348.455h20.011v-5h-20.011V348.455z M2935.183,348.455h20.011v-5h-20.011V348.455z
		 M2895.162,348.455h20.01v-5h-20.01V348.455z M2855.141,348.455h20.01v-5h-20.01V348.455z M2815.119,348.455h20.01v-5h-20.01
		V348.455z M2775.098,348.455h20.011v-5h-20.011V348.455z M2735.076,348.455h20.011v-5h-20.011V348.455z M2695.055,348.455h20.011
		v-5h-20.011V348.455z M2655.033,348.455h20.011v-5h-20.011V348.455z M2615.012,348.455h20.011v-5h-20.011V348.455z
		 M2574.99,348.455h20.011v-5h-20.011V348.455z M2534.969,348.455h20.011v-5h-20.011V348.455z M2494.947,348.455h20.012v-5h-20.012
		V348.455z M2454.926,348.455h20.012v-5h-20.012V348.455z M2414.905,348.455h20.011v-5h-20.011V348.455z M2374.884,348.455h20.011
		v-5h-20.011V348.455z M2334.862,348.455h20.011v-5h-20.011V348.455z M2294.841,348.455h20.011v-5h-20.011V348.455z
		 M2254.819,348.455h20.011v-5h-20.011V348.455z M2214.798,348.455h20.011v-5h-20.011V348.455z M2174.776,348.455h20.011v-5h-20.011
		V348.455z M2134.755,348.455h20.011v-5h-20.011V348.455z M2094.734,348.455h20.011v-5h-20.011V348.455z M2054.713,348.455h20.01v-5
		h-20.01V348.455z M2014.691,348.455h20.011v-5h-20.011V348.455z M1974.67,348.455h20.011v-5h-20.011V348.455z M1934.648,348.455
		h20.011v-5h-20.011V348.455z M1894.627,348.455h20.011v-5h-20.011V348.455z M1854.605,348.455h20.011v-5h-20.011V348.455z
		 M1814.584,348.455h20.01v-5h-20.01V348.455z M1774.563,348.455h20.011v-5h-20.011V348.455z M1734.542,348.455h20.011v-5h-20.011
		V348.455z M1694.52,348.455h20.011v-5h-20.011V348.455z M1654.499,348.455h20.011v-5h-20.011V348.455z M1614.478,348.455h20.011v-5
		h-20.011V348.455z M1574.456,348.455h20.011v-5h-20.011V348.455z M1534.435,348.455h20.011v-5h-20.011V348.455z M1494.413,348.455
		h20.011v-5h-20.011V348.455z M1454.392,348.455h20.01v-5h-20.01V348.455z M1414.371,348.455h20.011v-5h-20.011V348.455z
		 M1374.349,348.455h20.011v-5h-20.011V348.455z M1334.328,348.455h20.011v-5h-20.011V348.455z M1294.307,348.455h20.01v-5h-20.01
		V348.455z M1254.285,348.455h20.011v-5h-20.011V348.455z M1214.264,348.455h20.011v-5h-20.011V348.455z M1174.242,348.455h20.011
		v-5h-20.011V348.455z M1134.221,348.455h20.011v-5h-20.011V348.455z M1094.199,348.455h20.011v-5h-20.011V348.455z
		 M1054.178,348.455h20.011v-5h-20.011V348.455z M1014.156,348.455h20.011v-5h-20.011V348.455z M974.135,348.455h20.011v-5h-20.011
		V348.455z M934.113,348.455h20.011v-5h-20.011V348.455z M894.091,348.455h20.011v-5h-20.011V348.455z M854.07,348.455h20.011v-5
		H854.07V348.455z M814.048,348.455h20.011v-5h-20.011V348.455z M774.027,348.455h20.011v-5h-20.011V348.455z M734.005,348.455
		h20.011v-5h-20.011V348.455z M693.984,348.455h20.011v-5h-20.011V348.455z M653.962,348.455h20.011v-5h-20.011V348.455z
		 M613.941,348.455h20.011v-5h-20.011V348.455z M573.919,348.455h20.011v-5h-20.011V348.455z M533.897,348.455h20.011v-5h-20.011
		V348.455z M493.876,348.455h20.011v-5h-20.011V348.455z M453.854,348.455h20.011v-5h-20.011V348.455z M413.833,348.455h20.011v-5
		h-20.011V348.455z M373.812,348.455h20.011v-5h-20.011V348.455z M333.79,348.455H353.8v-5H333.79V348.455z M293.768,348.455h20.011
		v-5h-20.011V348.455z M253.747,348.455h20.011v-5h-20.011V348.455z M213.725,348.455h20.011v-5h-20.011V348.455z M173.703,348.455
		h20.011v-5h-20.011V348.455z M133.682,348.455h20.011v-5h-20.011V348.455z M93.66,348.455h20.011v-5H93.66V348.455z"/>
	<polyline fill="#FFFFFF" points="91.665,248.639 101.665,248.62 101.655,243.62 91.655,243.639 	"/>
	
		<rect x="121.678" y="243.562" transform="matrix(-1 0.0019 -0.0019 -1 263.8415 491.873)" fill="#FFFFFF" width="20.018" height="5"/>
	<path fill="#FFFFFF" d="M4622.719,237.971l9.356-0.021l-0.012-5l-9.356,0.022L4622.719,237.971z M4582.684,238.064l20.018-0.046
		l-0.012-5l-20.018,0.047L4582.684,238.064z M4542.647,238.157l20.019-0.046l-0.012-5l-20.018,0.046L4542.647,238.157z
		 M4502.612,238.25l20.018-0.046l-0.011-5l-20.018,0.046L4502.612,238.25z M4462.577,238.344l20.018-0.046l-0.012-5l-20.018,0.046
		L4462.577,238.344z M4422.541,238.437l20.018-0.046l-0.012-5l-20.018,0.046L4422.541,238.437z M4382.506,238.53l20.018-0.047
		l-0.012-5l-20.018,0.046L4382.506,238.53z M4342.47,238.624l20.019-0.047l-0.012-5l-20.018,0.047L4342.47,238.624z
		 M4302.435,238.717l20.018-0.047l-0.011-5l-20.018,0.047L4302.435,238.717z M4262.399,238.81l20.018-0.047l-0.012-5l-20.018,0.047
		L4262.399,238.81z M4222.363,238.903l20.018-0.047l-0.012-5l-20.018,0.047L4222.363,238.903z M4182.328,238.996l20.018-0.046
		l-0.012-5l-20.018,0.047L4182.328,238.996z M4142.293,239.089l20.018-0.046l-0.012-5l-20.018,0.046L4142.293,239.089z
		 M4102.257,239.183l20.019-0.046l-0.012-5l-20.018,0.046L4102.257,239.183z M4062.222,239.276l20.018-0.046l-0.012-5l-20.018,0.046
		L4062.222,239.276z M4022.186,239.369l20.019-0.046l-0.012-5l-20.018,0.046L4022.186,239.369z M3982.15,239.462l20.018-0.046
		l-0.012-5l-20.018,0.046L3982.15,239.462z M3942.115,239.556l20.018-0.047l-0.012-5l-20.018,0.047L3942.115,239.556z
		 M3902.079,239.649l20.019-0.047l-0.012-5l-20.018,0.047L3902.079,239.649z M3862.044,239.742l20.018-0.047l-0.012-5l-20.018,0.047
		L3862.044,239.742z M3822.009,239.835l20.018-0.047l-0.012-5l-20.018,0.047L3822.009,239.835z M3781.973,239.929l20.018-0.047
		l-0.012-5l-20.018,0.047L3781.973,239.929z M3741.938,240.021l20.018-0.046l-0.012-5l-20.018,0.046L3741.938,240.021z
		 M3701.901,240.115l20.019-0.046l-0.012-5l-20.018,0.046L3701.901,240.115z M3661.866,240.208l20.018-0.046l-0.011-5l-20.019,0.046
		L3661.866,240.208z M3621.831,240.301l20.018-0.046l-0.012-5l-20.018,0.046L3621.831,240.301z M3581.795,240.395l20.018-0.046
		l-0.012-5l-20.018,0.046L3581.795,240.395z M3541.76,240.488l20.018-0.046l-0.012-5l-20.018,0.046L3541.76,240.488z
		 M3501.725,240.581l20.018-0.047l-0.012-5l-20.018,0.047L3501.725,240.581z M3461.688,240.674l20.018-0.047l-0.011-5l-20.019,0.047
		L3461.688,240.674z M3421.653,240.768l20.018-0.047l-0.012-5l-20.018,0.047L3421.653,240.768z M3381.617,240.861l20.019-0.047
		l-0.012-5l-20.019,0.047L3381.617,240.861z M3341.582,240.954l20.018-0.047l-0.012-5l-20.018,0.047L3341.582,240.954z
		 M3301.547,241.047l20.018-0.046l-0.012-5l-20.018,0.046L3301.547,241.047z M3261.511,241.14l20.018-0.046l-0.011-5l-20.019,0.046
		L3261.511,241.14z M3221.476,241.233l20.018-0.046l-0.012-5l-20.018,0.046L3221.476,241.233z M3181.439,241.327l20.019-0.046
		l-0.012-5l-20.019,0.046L3181.439,241.327z M3141.404,241.42l20.018-0.046l-0.012-5l-20.018,0.046L3141.404,241.42z
		 M3101.369,241.513l20.018-0.046l-0.012-5l-20.018,0.046L3101.369,241.513z M3061.333,241.606l20.018-0.047l-0.011-5l-20.019,0.047
		L3061.333,241.606z M3021.298,241.7l20.018-0.047l-0.012-5l-20.018,0.047L3021.298,241.7z M2981.262,241.793l20.019-0.047l-0.012-5
		l-20.019,0.047L2981.262,241.793z M2941.227,241.886l20.018-0.047l-0.012-5l-20.018,0.047L2941.227,241.886z M2901.191,241.979
		l20.018-0.046l-0.012-5l-20.018,0.047L2901.191,241.979z M2861.155,242.072l20.018-0.046l-0.011-5l-20.018,0.046L2861.155,242.072z
		 M2821.12,242.166l20.018-0.046l-0.012-5l-20.018,0.046L2821.12,242.166z M2781.084,242.259l20.019-0.046l-0.012-5l-20.019,0.046
		L2781.084,242.259z M2741.049,242.352l20.018-0.046l-0.012-5l-20.018,0.046L2741.049,242.352z M2701.014,242.445l20.018-0.047
		l-0.012-5l-20.018,0.046L2701.014,242.445z M2660.978,242.539l20.019-0.047l-0.012-5l-20.018,0.046L2660.978,242.539z
		 M2620.942,242.632l20.018-0.047l-0.012-5l-20.018,0.047L2620.942,242.632z M2580.907,242.725l20.018-0.047l-0.012-5l-20.018,0.047
		L2580.907,242.725z M2540.871,242.818l20.018-0.047l-0.012-5l-20.018,0.047L2540.871,242.818z M2500.836,242.911l20.018-0.046
		l-0.012-5l-20.018,0.047L2500.836,242.911z M2460.8,243.004l20.019-0.046l-0.012-5l-20.018,0.047L2460.8,243.004z
		 M2420.765,243.098l20.018-0.046l-0.012-5l-20.018,0.046L2420.765,243.098z M2380.729,243.191l20.018-0.046l-0.012-5l-20.018,0.046
		L2380.729,243.191z M2340.693,243.284l20.018-0.046l-0.011-5l-20.019,0.046L2340.693,243.284z M2300.657,243.377l20.019-0.046
		l-0.012-5l-20.018,0.046L2300.657,243.377z M2260.622,243.471l20.018-0.047l-0.012-5l-20.018,0.046L2260.622,243.471z
		 M2220.586,243.564l20.018-0.047l-0.012-5l-20.018,0.047L2220.586,243.564z M2180.55,243.657l20.018-0.047l-0.011-5l-20.018,0.047
		L2180.55,243.657z M2140.515,243.75l20.018-0.047l-0.011-5l-20.018,0.047L2140.515,243.75z M2100.479,243.844l20.018-0.047
		l-0.012-5l-20.018,0.047L2100.479,243.844z M2060.443,243.937l20.018-0.046l-0.012-5l-20.018,0.047L2060.443,243.937z
		 M2020.407,244.03l20.018-0.046l-0.011-5l-20.018,0.046L2020.407,244.03z M1980.371,244.123l20.018-0.046l-0.012-5l-20.018,0.046
		L1980.371,244.123z M1940.335,244.216l20.018-0.046l-0.012-5l-20.018,0.046L1940.335,244.216z M1900.3,244.31l20.018-0.046
		l-0.011-5l-20.018,0.046L1900.3,244.31z M1860.264,244.403l20.018-0.046l-0.012-5l-20.018,0.046L1860.264,244.403z
		 M1820.228,244.496l20.018-0.047l-0.012-5l-20.018,0.047L1820.228,244.496z M1780.192,244.589l20.018-0.047l-0.011-5l-20.018,0.047
		L1780.192,244.589z M1740.156,244.683l20.018-0.047l-0.012-5l-20.018,0.047L1740.156,244.683z M1700.121,244.776l20.018-0.047
		l-0.012-5l-20.018,0.047L1700.121,244.776z M1660.085,244.869l20.018-0.047l-0.011-5l-20.018,0.047L1660.085,244.869z
		 M1620.049,244.962l20.018-0.046l-0.012-5l-20.018,0.046L1620.049,244.962z M1580.013,245.055l20.018-0.046l-0.012-5l-20.018,0.046
		L1580.013,245.055z M1539.978,245.148l20.018-0.046l-0.011-5l-20.018,0.046L1539.978,245.148z M1499.941,245.242l20.018-0.046
		l-0.012-5l-20.018,0.046L1499.941,245.242z M1459.906,245.335l20.018-0.046l-0.012-5l-20.018,0.046L1459.906,245.335z
		 M1419.87,245.428l20.018-0.046l-0.012-5l-20.018,0.046L1419.87,245.428z M1379.834,245.521l20.018-0.047l-0.012-5l-20.018,0.047
		L1379.834,245.521z M1339.798,245.615l20.018-0.047l-0.012-5l-20.018,0.047L1339.798,245.615z M1299.763,245.708l20.018-0.047
		l-0.012-5l-20.018,0.047L1299.763,245.708z M1259.727,245.801l20.018-0.047l-0.012-5l-20.018,0.047L1259.727,245.801z
		 M1219.691,245.895l20.018-0.047l-0.012-5l-20.018,0.047L1219.691,245.895z M1179.655,245.987l20.018-0.046l-0.012-5l-20.018,0.046
		L1179.655,245.987z M1139.619,246.081l20.018-0.046l-0.012-5l-20.018,0.046L1139.619,246.081z M1099.583,246.174l20.018-0.046
		l-0.012-5l-20.018,0.046L1099.583,246.174z M1059.548,246.267l20.018-0.046l-0.011-5l-20.018,0.046L1059.548,246.267z
		 M1019.512,246.36l20.018-0.046l-0.012-5l-20.018,0.046L1019.512,246.36z M979.476,246.454l20.018-0.046l-0.012-5l-20.018,0.046
		L979.476,246.454z M939.44,246.547l20.018-0.047l-0.011-5l-20.018,0.047L939.44,246.547z M899.404,246.64l20.018-0.047l-0.012-5
		l-20.018,0.047L899.404,246.64z M859.369,246.733l20.018-0.047l-0.012-5l-20.018,0.047L859.369,246.733z M819.333,246.827
		l20.018-0.047l-0.012-5l-20.018,0.047L819.333,246.827z M779.297,246.92l20.018-0.047l-0.012-5l-20.018,0.047L779.297,246.92z
		 M739.261,247.013l20.018-0.046l-0.012-5l-20.018,0.046L739.261,247.013z M699.226,247.106l20.018-0.046l-0.012-5l-20.018,0.046
		L699.226,247.106z M659.189,247.199l20.018-0.046l-0.012-5l-20.018,0.046L659.189,247.199z M619.154,247.292l20.018-0.046l-0.012-5
		l-20.018,0.046L619.154,247.292z M579.118,247.386l20.018-0.046l-0.012-5l-20.018,0.046L579.118,247.386z M539.082,247.479
		l20.018-0.046l-0.012-5l-20.018,0.046L539.082,247.479z M499.046,247.572l20.018-0.047l-0.011-5l-20.018,0.047L499.046,247.572z
		 M459.01,247.666l20.018-0.047l-0.012-5l-20.018,0.047L459.01,247.666z M418.975,247.759l20.018-0.047l-0.012-5l-20.018,0.047
		L418.975,247.759z M378.938,247.852l20.018-0.047l-0.012-5l-20.018,0.047L378.938,247.852z M338.902,247.945l20.018-0.046l-0.011-5
		l-20.018,0.047L338.902,247.945z M298.867,248.038l20.018-0.046l-0.012-5l-20.018,0.046L298.867,248.038z M258.831,248.131
		l20.018-0.046l-0.011-5l-20.018,0.046L258.831,248.131z M218.795,248.225l20.018-0.046l-0.012-5l-20.018,0.046L218.795,248.225z
		 M178.759,248.318l20.018-0.046l-0.012-5l-20.018,0.046L178.759,248.318z M138.723,248.411l20.018-0.046l-0.012-5l-20.018,0.046
		L138.723,248.411z M98.688,248.504l20.018-0.047l-0.011-5l-20.018,0.046L98.688,248.504z"/>
	<polyline fill="#FFFFFF" points="93.66,127.367 103.66,127.367 103.66,122.367 93.66,122.367 	"/>
	<rect x="123.671" y="122.367" fill="#FFFFFF" width="20.011" height="5"/>
	<path fill="#FFFFFF" d="M4606.066,127.367h20.011v-5h-20.011V127.367z M4566.045,127.367h20.011v-5h-20.011V127.367z
		 M4526.023,127.367h20.012v-5h-20.012V127.367z M4486.003,127.367h20.011v-5h-20.011V127.367z M4445.981,127.367h20.011v-5h-20.011
		V127.367z M4405.96,127.367h20.011v-5h-20.011V127.367z M4365.939,127.367h20.01v-5h-20.01V127.367z M4325.918,127.367h20.01v-5
		h-20.01V127.367z M4285.896,127.367h20.011v-5h-20.011V127.367z M4245.875,127.367h20.011v-5h-20.011V127.367z M4205.854,127.367
		h20.012v-5h-20.012V127.367z M4165.833,127.367h20.011v-5h-20.011V127.367z M4125.812,127.367h20.011v-5h-20.011V127.367z
		 M4085.79,127.367h20.011v-5h-20.011V127.367z M4045.77,127.367h20.01v-5h-20.01V127.367z M4005.748,127.367h20.011v-5h-20.011
		V127.367z M3965.727,127.367h20.011v-5h-20.011V127.367z M3925.705,127.367h20.011v-5h-20.011V127.367z M3885.684,127.367h20.012
		v-5h-20.012V127.367z M3845.663,127.367h20.011v-5h-20.011V127.367z M3805.642,127.367h20.011v-5h-20.011V127.367z
		 M3765.62,127.367h20.011v-5h-20.011V127.367z M3725.6,127.367h20.01v-5h-20.01V127.367z M3685.578,127.367h20.01v-5h-20.01
		V127.367z M3645.557,127.367h20.011v-5h-20.011V127.367z M3605.535,127.367h20.011v-5h-20.011V127.367z M3565.514,127.367h20.011
		v-5h-20.011V127.367z M3525.493,127.367h20.011v-5h-20.011V127.367z M3485.472,127.367h20.011v-5h-20.011V127.367z
		 M3445.45,127.367h20.011v-5h-20.011V127.367z M3405.43,127.367h20.01v-5h-20.01V127.367z M3365.408,127.367h20.01v-5h-20.01
		V127.367z M3325.387,127.367h20.011v-5h-20.011V127.367z M3285.365,127.367h20.011v-5h-20.011V127.367z M3245.344,127.367h20.011
		v-5h-20.011V127.367z M3205.322,127.367h20.012v-5h-20.012V127.367z M3165.302,127.367h20.011v-5h-20.011V127.367z
		 M3125.28,127.367h20.011v-5h-20.011V127.367z M3085.259,127.367h20.011v-5h-20.011V127.367z M3045.238,127.367h20.01v-5h-20.01
		V127.367z M3005.217,127.367h20.011v-5h-20.011V127.367z M2965.195,127.367h20.011v-5h-20.011V127.367z M2925.174,127.367h20.011
		v-5h-20.011V127.367z M2885.152,127.367h20.012v-5h-20.012V127.367z M2845.132,127.367h20.011v-5h-20.011V127.367z
		 M2805.11,127.367h20.011v-5h-20.011V127.367z M2765.089,127.367h20.011v-5h-20.011V127.367z M2725.068,127.367h20.01v-5h-20.01
		V127.367z M2685.047,127.367h20.011v-5h-20.011V127.367z M2645.025,127.367h20.011v-5h-20.011V127.367z M2605.004,127.367h20.011
		v-5h-20.011V127.367z M2564.982,127.367h20.011v-5h-20.011V127.367z M2524.962,127.367h20.011v-5h-20.011V127.367z
		 M2484.94,127.367h20.011v-5h-20.011V127.367z M2444.919,127.367h20.011v-5h-20.011V127.367z M2404.898,127.367h20.01v-5h-20.01
		V127.367z M2364.877,127.367h20.01v-5h-20.01V127.367z M2324.855,127.367h20.01v-5h-20.01V127.367z M2284.834,127.367h20.01v-5
		h-20.01V127.367z M2244.812,127.367h20.01v-5h-20.01V127.367z M2204.791,127.367h20.011v-5h-20.011V127.367z M2164.769,127.367
		h20.011v-5h-20.011V127.367z M2124.748,127.367h20.011v-5h-20.011V127.367z M2084.726,127.367h20.011v-5h-20.011V127.367z
		 M2044.705,127.367h20.011v-5h-20.011V127.367z M2004.683,127.367h20.011v-5h-20.011V127.367z M1964.661,127.367h20.011v-5h-20.011
		V127.367z M1924.64,127.367h20.011v-5h-20.011V127.367z M1884.618,127.367h20.011v-5h-20.011V127.367z M1844.597,127.367h20.011v-5
		h-20.011V127.367z M1804.575,127.367h20.011v-5h-20.011V127.367z M1764.554,127.367h20.011v-5h-20.011V127.367z M1724.532,127.367
		h20.011v-5h-20.011V127.367z M1684.511,127.367h20.011v-5h-20.011V127.367z M1644.489,127.367h20.011v-5h-20.011V127.367z
		 M1604.468,127.367h20.011v-5h-20.011V127.367z M1564.446,127.367h20.011v-5h-20.011V127.367z M1524.425,127.367h20.011v-5h-20.011
		V127.367z M1484.403,127.367h20.011v-5h-20.011V127.367z M1444.382,127.367h20.011v-5h-20.011V127.367z M1404.36,127.367h20.011v-5
		h-20.011V127.367z M1364.339,127.367h20.011v-5h-20.011V127.367z M1324.317,127.367h20.011v-5h-20.011V127.367z M1284.296,127.367
		h20.011v-5h-20.011V127.367z M1244.274,127.367h20.011v-5h-20.011V127.367z M1204.253,127.367h20.011v-5h-20.011V127.367z
		 M1164.231,127.367h20.011v-5h-20.011V127.367z M1124.209,127.367h20.011v-5h-20.011V127.367z M1084.188,127.367h20.011v-5h-20.011
		V127.367z M1044.167,127.367h20.011v-5h-20.011V127.367z M1004.145,127.367h20.011v-5h-20.011V127.367z M964.124,127.367h20.011v-5
		h-20.011V127.367z M924.102,127.367h20.011v-5h-20.011V127.367z M884.081,127.367h20.011v-5h-20.011V127.367z M844.059,127.367
		h20.011v-5h-20.011V127.367z M804.038,127.367h20.011v-5h-20.011V127.367z M764.016,127.367h20.011v-5h-20.011V127.367z
		 M723.995,127.367h20.011v-5h-20.011V127.367z M683.973,127.367h20.011v-5h-20.011V127.367z M643.951,127.367h20.011v-5h-20.011
		V127.367z M603.93,127.367h20.011v-5H603.93V127.367z M563.908,127.367h20.011v-5h-20.011V127.367z M523.887,127.367h20.011v-5
		h-20.011V127.367z M483.865,127.367h20.011v-5h-20.011V127.367z M443.843,127.367h20.011v-5h-20.011V127.367z M403.822,127.367
		h20.011v-5h-20.011V127.367z M363.8,127.367h20.011v-5H363.8V127.367z M323.779,127.367h20.011v-5h-20.011V127.367z
		 M283.757,127.367h20.011v-5h-20.011V127.367z M243.735,127.367h20.011v-5h-20.011V127.367z M203.714,127.367h20.011v-5h-20.011
		V127.367z M163.692,127.367h20.011v-5h-20.011V127.367z"/>
	<path fill="#639ED6" d="M531.461,78.38c-0.19-0.271-3.311-4.788-9.741-9.326c-3.215-2.266-7.262-4.531-12.162-6.227
		c-4.899-1.698-10.651-2.82-17.216-2.819c-7.665-0.001-16.422,1.528-26.232,5.35c-14.723,5.737-31.823,16.595-51.538,35.233
		c-19.714,18.643-42.056,45.081-67.238,82.111c-6.224,9.153-12.462,16.325-18.864,21.98c-5.604,4.948-11.334,8.742-17.356,11.7
		c-10.53,5.17-22.02,7.798-35.242,9.216c-19.819,2.134-43.433,1.475-72.542,2.929c-29.113,1.459-63.72,5.072-105.644,15.828
		c-2.14,0.549-3.43,2.729-2.88,4.869c0.549,2.14,2.729,3.429,4.869,2.88c35.979-9.228,66.386-13.107,92.636-14.911
		c19.689-1.353,37.041-1.534,52.68-1.918c11.73-0.29,22.5-0.691,32.575-1.814c7.556-0.843,14.723-2.094,21.589-4.026
		c10.296-2.894,19.913-7.349,28.975-14.158c9.067-6.806,17.561-15.928,25.82-28.075c33.248-48.903,61.312-78.823,84.33-96.395
		c11.507-8.789,21.745-14.493,30.733-17.993c8.992-3.5,16.728-4.804,23.33-4.805c5.655,0.001,10.49,0.958,14.599,2.378
		c6.156,2.131,10.691,5.33,13.672,7.98c1.489,1.324,2.586,2.507,3.293,3.335c0.354,0.414,0.609,0.738,0.768,0.947
		c0.079,0.104,0.134,0.18,0.165,0.222l0.028,0.039v0l2.136-1.479l-2.144,1.467l0.008,0.013l2.136-1.479l-2.144,1.467
		c1.247,1.824,3.736,2.291,5.56,1.043C532.242,82.693,532.709,80.204,531.461,78.38L531.461,78.38z"/>
	<path fill="#639ED6" d="M525.153,83.276c17.608,20.065,34.93,46.117,52.841,74.621c26.881,42.76,55.104,91.026,88.226,133.09
		c16.564,21.031,34.361,40.519,53.877,56.981c19.513,16.459,40.758,29.896,64.174,38.745c17.809,6.721,40.258,10.466,63.721,10.473
		c17.115-0.001,34.761-2.005,51.498-6.397c16.732-4.395,32.565-11.178,45.985-20.817c16.584-11.919,33.239-24.638,48.927-34.277
		c7.839-4.82,15.43-8.865,22.582-11.672c7.153-2.812,13.847-4.367,19.896-4.362c0.681,0,1.354,0.02,2.021,0.059
		c12.328,0.728,21.584,3.266,28.879,7.019c5.474,2.821,9.88,6.333,13.695,10.444c5.717,6.159,10.086,13.725,14.286,22.121
		c4.204,8.388,8.229,17.574,13.413,26.797c5.425,9.624,12.242,21.37,22.486,30.859c5.123,4.74,11.124,8.907,18.196,11.872
		c7.07,2.968,15.197,4.715,24.465,4.712c8.46,0,17.866-1.444,28.363-4.672c10.499-3.229,22.097-8.238,34.986-15.398l0.073-0.041
		l108.084-66.048c1.885-1.151,2.479-3.614,1.327-5.499s-3.614-2.479-5.499-1.327l-108.014,66.005l2.086,3.413l-1.942-3.497
		c-12.493,6.941-23.596,11.716-33.453,14.745c-9.859,3.031-18.466,4.319-26.012,4.319c-8.271-0.003-15.274-1.537-21.372-4.09
		c-9.133-3.831-16.295-10.012-22.227-17.099c-5.926-7.08-10.562-15.033-14.577-22.177c-4.391-7.803-8.016-15.809-11.802-23.562
		c-2.842-5.814-5.776-11.488-9.239-16.806c-2.597-3.986-5.494-7.772-8.873-11.232c-5.063-5.191-11.226-9.632-18.904-12.876
		c-7.679-3.25-16.839-5.315-27.958-5.969c-0.827-0.049-1.658-0.072-2.491-0.072c-7.413,0.004-15.037,1.863-22.82,4.916
		c-11.673,4.59-23.767,11.891-36.082,20.246c-12.309,8.357-24.825,17.783-37.171,26.653c-12.432,8.936-27.371,15.383-43.349,19.576
		c-15.975,4.195-32.977,6.136-49.466,6.135c-22.599,0.007-44.249-3.658-60.893-9.957c-29.865-11.282-56.314-30.483-80.322-54.351
		c-36.014-35.789-66.438-82.035-94.536-127.056c-14.053-22.511-27.532-44.714-40.885-65.163
		c-13.356-20.449-26.58-39.145-40.188-54.659c-1.457-1.661-3.984-1.826-5.645-0.369C523.861,79.089,523.696,81.616,525.153,83.276z"
		/>
	<path fill="#639ED6" d="M2039.269,346.477c-0.443-0.197-3.124-1.267-7.903-1.264c-6.718-0.007-17.476,2.113-31.958,11.217
		c-14.494,9.105-32.777,25.165-54.89,53.233c-4.502,5.707-9.293,9.474-14.394,11.878c-5.103,2.397-10.574,3.45-16.518,3.454
		c-8.99,0.009-19.031-2.479-29.682-6.363c-15.986-5.812-33.273-14.699-50.794-22.208c-8.766-3.752-17.601-7.16-26.421-9.646
		c-8.82-2.483-17.633-4.049-26.344-4.051c-9.023-0.004-17.953,1.703-26.445,5.81c-25.745,12.438-47.673,24.487-67.647,33.338
		c-9.986,4.428-19.479,8.057-28.703,10.567c-9.228,2.512-18.18,3.91-27.149,3.91c-8.063-0.001-16.148-1.126-24.516-3.634
		c-8.366-2.509-17.019-6.407-26.159-11.993c-18.003-11.002-38.512-23.507-56.535-34.271c-9.012-5.382-17.403-10.329-24.558-14.44
		c-7.161-4.113-13.064-7.382-17.204-9.453c-20.814-10.404-38.138-19.397-53.678-25.861c-7.771-3.229-15.101-5.827-22.208-7.626
		c-7.106-1.798-13.996-2.795-20.834-2.795c-7.165-0.002-14.263,1.101-21.41,3.459c-7.149,2.356-14.342,5.956-21.79,10.901
		c-1.84,1.222-2.341,3.704-1.12,5.545c1.222,1.84,3.705,2.342,5.545,1.119c6.964-4.623,13.507-7.87,19.869-9.968
		c6.364-2.096,12.554-3.055,18.905-3.057c6.059,0,12.273,0.881,18.872,2.55c9.895,2.501,20.643,6.791,32.825,12.435
		c12.182,5.642,25.793,12.627,41.445,20.454c3.86,1.929,9.707,5.16,16.796,9.234c21.293,12.233,53.916,32.105,80.907,48.601
		c9.643,5.894,18.934,10.102,28.034,12.83c9.098,2.729,18.002,3.972,26.813,3.971c9.806,0,19.487-1.532,29.251-4.191
		c14.65-3.992,29.501-10.498,45.484-18.289c15.982-7.795,33.099-16.886,52.244-26.132c7.301-3.521,14.931-5.008,22.965-5.013
		c10.324-0.005,21.299,2.505,32.562,6.387c16.9,5.811,34.377,14.673,51.395,22.168c8.515,3.746,16.923,7.15,25.154,9.641
		c8.23,2.486,16.294,4.069,24.13,4.072c6.89,0.003,13.621-1.247,19.923-4.215c6.305-2.961,12.124-7.622,17.272-14.166
		c21.702-27.556,39.395-42.958,52.86-51.41c13.479-8.454,22.666-9.985,27.703-9.991c1.798,0,3.078,0.198,3.856,0.369
		c0.389,0.086,0.652,0.165,0.79,0.211l0.114,0.039l0.221-0.573l-0.234,0.568l0.014,0.005l0.221-0.573l-0.234,0.568l1.082-2.625
		l-1.142,2.599l0.06,0.026l1.082-2.625l-1.142,2.599c2.023,0.889,4.382-0.031,5.271-2.054
		C2042.211,349.725,2041.291,347.364,2039.269,346.477z"/>
	<path fill="#639ED6" d="M2282.136,292.728c-0.372,0.21-1.383,0.829-3.603,2.794c-3.322,2.948-9.35,8.936-19.644,21.146
		c-10.29,12.209-24.837,30.64-45.127,58.445c-12.892,17.682-23.444,32.266-33.647,42.149c-5.097,4.947-10.08,8.711-15.175,11.219
		c-5.104,2.505-10.312,3.802-16.16,3.809c-6.746,0.001-14.416-1.771-23.495-5.807c-2.859-1.267-5.977-3.399-9.21-6.227
		c-5.67-4.942-11.669-11.964-17.788-19.709c-9.199-11.625-18.68-24.857-28.53-35.404c-4.935-5.274-9.967-9.894-15.247-13.305
		c-2.642-1.703-5.351-3.103-8.152-4.095c-2.799-0.992-5.698-1.572-8.652-1.605c-2.209-0.025-4.021,1.745-4.046,3.954
		c-0.025,2.209,1.745,4.021,3.954,4.046c2.993,0.034,6.112,0.907,9.422,2.604c2.89,1.48,5.894,3.587,8.945,6.191
		c5.345,4.555,10.818,10.617,16.285,17.296c8.21,10.022,16.409,21.411,24.589,31.274c4.095,4.934,8.189,9.491,12.342,13.328
		c4.158,3.833,8.371,6.969,12.838,8.962c9.796,4.354,18.578,6.495,26.744,6.496c7.064,0.007,13.616-1.631,19.694-4.632
		c4.563-2.248,8.869-5.241,13.056-8.846c6.281-5.411,12.312-12.199,18.605-20.105c6.291-7.908,12.84-16.944,20.089-26.878
		c26.944-36.925,43.646-57.142,53.524-68.045c4.938-5.45,8.168-8.571,10.092-10.276c0.962-0.853,1.596-1.352,1.945-1.609
		c0.175-0.13,0.278-0.199,0.315-0.223l0.015-0.01l-1.136-1.805l1.033,1.864l0.103-0.06l-1.136-1.805l1.033,1.864
		c1.932-1.07,2.631-3.505,1.561-5.438C2286.503,292.356,2284.068,291.657,2282.136,292.728z"/>
	<path fill="#639ED6" d="M2893.851,386.571l-0.063,0.032c-1.455,0.732-27.819,13.876-68.433,26.815
		c-40.611,12.944-95.472,25.667-153.854,25.663c-33.388,0-67.921-4.155-101.64-14.759c-3.821-1.2-8.596-3.165-13.977-5.704
		c-9.425-4.446-20.732-10.647-32.592-17.614c-17.795-10.452-36.854-22.631-52.946-33.268
		c-16.087-10.633-29.233-19.743-35.155-24.015c-30.728-22.162-53.367-39.023-71.524-50.476
		c-9.084-5.726-17.055-10.106-24.429-13.099c-7.367-2.987-14.179-4.587-20.796-4.588c-6.454-0.008-12.648,1.552-18.701,4.557
		c-6.063,3.003-12.018,7.403-18.354,13.146c-1.636,1.484-1.76,4.014-0.275,5.65c1.484,1.636,4.014,1.76,5.65,0.275
		c5.989-5.436,11.397-9.368,16.526-11.902c5.14-2.534,9.967-3.719,15.153-3.727c5.311,0,11.077,1.281,17.79,4.002
		c10.063,4.07,22.146,11.393,37.423,21.883c15.284,10.486,33.779,24.12,56.856,40.766c4.63,3.339,13.372,9.427,24.436,16.872
		c16.591,11.164,38.368,25.357,59.128,37.759c10.382,6.202,20.507,11.955,29.63,16.667c9.134,4.713,17.224,8.386,23.756,10.445
		c34.644,10.894,69.992,15.127,104.04,15.128c60.489-0.006,116.896-13.346,158.231-26.665c41.335-13.323,67.6-26.642,67.738-26.711
		c1.97-1,2.757-3.407,1.758-5.377C2898.228,386.359,2895.82,385.572,2893.851,386.571z"/>
	<path fill="#639ED6" d="M3313.759,418.413c-0.062-0.031-35.325-18.067-79.449-36.135c-22.064-9.034-46.343-18.076-69.595-24.883
		c-11.628-3.403-22.999-6.248-33.73-8.249c-10.732-1.999-20.821-3.159-29.928-3.161c-1.921,0-3.8,0.053-5.632,0.16
		c-115.093,6.78-200.972,40.178-201.214,40.265c-2.06,0.801-3.079,3.119-2.279,5.178c0.801,2.06,3.119,3.079,5.178,2.279
		l0.052-0.021c2.376-0.923,86.719-33.134,198.733-39.715c1.663-0.098,3.385-0.146,5.162-0.146
		c8.425-0.001,18.075,1.088,28.462,3.026c18.184,3.387,38.623,9.361,58.997,16.425c30.566,10.594,61.001,23.631,83.767,34.012
		c11.384,5.19,20.853,9.718,27.47,12.944c3.309,1.613,5.904,2.901,7.671,3.785c0.883,0.442,1.559,0.783,2.013,1.013
		c0.227,0.114,0.398,0.201,0.512,0.26c0.114,0.058,0.169,0.086,0.169,0.086c1.967,1.006,4.376,0.227,5.383-1.74
		C3316.505,421.829,3315.726,419.419,3313.759,418.413z"/>
	<path fill="#639ED6" d="M4006.155,168.21l-0.065,0.12c-1.431,2.588-26.186,46.97-60.566,90.513
		c-17.181,21.768-36.779,43.319-56.916,59.289c-10.064,7.986-20.257,14.572-30.288,19.125c-10.036,4.557-19.882,7.073-29.332,7.071
		c-4.819-0.001-9.544-0.649-14.192-2.024c-5.271-1.553-11.724-4.623-18.951-8.839c-12.667-7.374-27.739-18.212-44.06-30.301
		c-24.497-18.137-51.827-39.091-78.723-55.596c-13.452-8.253-26.801-15.398-39.705-20.518c-12.904-5.112-25.379-8.222-37.132-8.229
		c-4.133,0-8.174,0.389-12.093,1.224c-14.211,3.023-27.277,8.646-39.378,16.108c-21.181,13.067-39.437,31.72-56.182,52.235
		c-12.558,15.391-24.264,31.846-35.656,47.844c-17.078,23.996-33.486,46.965-50.723,63.706c-8.612,8.374-17.414,15.182-26.54,19.861
		c-9.134,4.68-18.562,7.259-28.687,7.265c-10.179-0.004-21.137-2.618-33.24-8.666c-1.977-0.987-4.379-0.187-5.367,1.789
		c-0.987,1.977-0.187,4.379,1.789,5.367c12.998,6.503,25.246,9.513,36.818,9.51c11.693,0.005,22.621-3.076,32.817-8.395
		c8.93-4.653,17.327-11.002,25.401-18.533c14.125-13.186,27.293-30.012,40.485-48.092c19.771-27.118,39.6-57.08,62.145-81.759
		c11.268-12.34,23.201-23.353,36.091-32.062c12.894-8.711,26.723-15.125,41.891-18.354c3.318-0.706,6.797-1.048,10.428-1.048
		c7.862-0.002,16.451,1.612,25.533,4.546c15.897,5.125,33.261,14.283,50.896,25.363c26.466,16.617,53.554,37.519,77.861,55.444
		c12.16,8.965,23.627,17.187,34.042,23.781c5.209,3.297,10.156,6.188,14.817,8.564c4.664,2.374,9.038,4.237,13.151,5.456
		c5.41,1.602,10.922,2.354,16.462,2.353c11.053-0.002,22.179-2.973,33.154-8.022c19.207-8.854,38.072-24.065,55.744-41.85
		c26.487-26.685,50.247-59.229,67.444-85.14c17.19-25.909,27.796-45.179,27.834-45.248c1.065-1.936,0.359-4.368-1.575-5.433
		C4009.653,165.569,4007.221,166.275,4006.155,168.21L4006.155,168.21z"/>
	<path fill="#639ED6" d="M4012.923,172.453l-0.153-0.108L4012.923,172.453L4012.923,172.453l-0.153-0.108L4012.923,172.453
		c0.11-0.163,7.933-11.068,20.942-21.783c6.501-5.36,14.291-10.667,23.013-14.605c8.728-3.941,18.361-6.515,28.669-6.515
		c11.136,0.009,23.107,2.972,35.852,10.733c9.551,5.825,19.522,14.376,29.733,26.451c15.315,18.107,31.146,44.137,46.847,80.534
		c15.703,36.396,31.281,83.149,46.176,142.672c2.189,8.753,5.359,16.523,9.396,23.259c6.05,10.104,14.072,17.868,23.494,23.048
		c9.421,5.187,20.201,7.779,31.709,7.776c16.389-0.005,34.254-5.214,52.286-15.581c15.157-8.717,28.075-18.421,40.281-28.907
		c18.313-15.738,35.032-33.199,55.541-51.994c20.511-18.798,44.818-38.969,78.344-60.203c10.779-6.828,20.41-11.658,29.424-14.772
		c9.02-3.114,17.416-4.533,25.889-4.536c9.339,0.001,18.81,1.737,29.237,5.015c2.107,0.663,4.354-0.509,5.016-2.616
		c0.663-2.107-0.509-4.354-2.615-5.016c-10.972-3.451-21.294-5.383-31.638-5.383c-9.379-0.003-18.74,1.597-28.502,4.975
		c-9.766,3.376-19.937,8.511-31.092,15.576c-45.31,28.689-74.213,55.65-99.051,79.529c-12.42,11.939-23.823,23.1-35.766,33.357
		c-11.944,10.259-24.423,19.623-39.057,28.04c-17.061,9.815-33.623,14.521-48.298,14.517c-6.878,0-13.345-1.026-19.302-3.035
		c-8.937-3.019-16.745-8.225-23.141-15.68c-6.39-7.457-11.364-17.199-14.396-29.31c-26.631-106.384-55.476-172.638-83.99-212.638
		c-14.264-19.994-28.477-33.437-42.36-41.907c-13.874-8.473-27.435-11.912-40.017-11.903c-11.744,0-22.59,2.959-32.188,7.326
		c-14.401,6.559-26.058,16.261-34.178,24.316c-8.115,8.06-12.688,14.498-12.784,14.632c-1.278,1.802-0.854,4.299,0.948,5.577
		C4009.148,174.68,4011.645,174.255,4012.923,172.453z"/>
	<text transform="matrix(1 0 0 1 644.8457 556.124)" fill="#6F6E6E" font-family="'Avenir-Light'" font-size="69.8235">Jan</text>
</g>
<text transform="matrix(1 0 0 1 2312.5146 558.124)" fill="#6F6E6E" font-family="'Avenir-Light'" font-size="69.8235">Feb</text>
<text transform="matrix(1 0 0 1 3946.5146 558.124)" fill="#6F6E6E" font-family="'Avenir-Light'" font-size="69.8235">Mar</text>
</svg>
