<?xml version="1.0" encoding="utf-8"?>
<!-- Generator: Adobe Illustrator 16.0.0, SVG Export Plug-In . SVG Version: 6.00 Build 0)  -->
<!DOCTYPE svg PUBLIC "-//W3C//DTD SVG 1.1//EN" "http://www.w3.org/Graphics/SVG/1.1/DTD/svg11.dtd">
<svg version="1.1" id="Layer_1" xmlns="http://www.w3.org/2000/svg" xmlns:xlink="http://www.w3.org/1999/xlink" x="0px" y="0px"
	 width="1384.965px" height="796.353px" viewBox="0 0 1384.965 796.353" enable-background="new 0 0 1384.965 796.353"
	 xml:space="preserve">
<g>
	<path opacity="0.4" fill="#B0B0B0" d="M398.126,398.176l336.341,213.021C616.817,796.955,370.859,852.166,185.104,734.517
		c-26.378-16.707-48.258-34.329-70.202-56.54L398.126,398.176z"/>
	<path opacity="0.6" fill="#8E8E8E" d="M398.126,398.176l397.697-18.42c3.869,83.465-16.651,160.854-61.356,231.441L398.126,398.176
		z"/>
	<path fill="#F4D80F" d="M398.126,398.176l374.936-133.89c14.05,39.345,20.831,73.74,22.762,115.47L398.126,398.176z"/>
	<path opacity="0.9" fill="#1A81C6" d="M398.126,398.176l16.313-397.79c167.186,6.857,302.352,106.319,358.622,263.9
		L398.126,398.176z"/>
	<path opacity="0.9" fill="#146591" d="M398.126,398.176L114.901,677.977C-39.627,521.556-38.096,269.48,118.326,114.953
		C200.133,34.135,299.539-4.327,414.439,0.386L398.126,398.176z"/>
</g>
<circle opacity="0.9" fill="#146591" cx="1008.397" cy="204.384" r="32.362"/>
<text transform="matrix(1 0 0 1 1066.8008 220.0645)" fill="#6F6E6E" font-family="'Avenir-Light'" font-size="55">electricity</text>
<circle opacity="0.9" fill="#1A81C6" cx="1008.397" cy="300.341" r="32.362"/>
<text transform="matrix(1 0 0 1 1066.8008 316.0215)" fill="#6F6E6E" font-family="'Avenir-Light'" font-size="55">electronics</text>
<circle fill="#F4D80F" cx="1009.14" cy="394.811" r="32.362"/>
<text transform="matrix(1 0 0 1 1069.0312 410.4912)" fill="#6F6E6E" font-family="'Avenir-Light'" font-size="55">paper</text>
<circle opacity="0.6" fill="#8E8E8E" cx="1009.14" cy="492.998" r="32.362"/>
<text transform="matrix(1 0 0 1 1069.0312 508.6787)" fill="#6F6E6E" font-family="'Avenir-Light'" font-size="55">transport</text>
<circle opacity="0.4" fill="#B0B0B0" cx="1010.256" cy="589.699" r="32.362"/>
<text transform="matrix(1 0 0 1 1070.1475 605.3799)"><tspan x="0" y="0" fill="#6F6E6E" font-family="'Avenir-Light'" font-size="55">server</tspan><tspan x="0" y="57" fill="#6F6E6E" font-family="'Avenir-Light'" font-size="55">maintenance</tspan></text>
<circle fill="#FFFFFF" cx="401.401" cy="398.093" r="193.536"/>
</svg>
