<?xml version="1.0" encoding="utf-8"?>
<!-- Generator: Adobe Illustrator 16.0.0, SVG Export Plug-In . SVG Version: 6.00 Build 0)  -->
<!DOCTYPE svg PUBLIC "-//W3C//DTD SVG 1.1//EN" "http://www.w3.org/Graphics/SVG/1.1/DTD/svg11.dtd">
<svg version="1.1" id="Layer_1" xmlns="http://www.w3.org/2000/svg" xmlns:xlink="http://www.w3.org/1999/xlink" x="0px" y="0px"
	 width="1385.677px" height="798.167px" viewBox="0 0 1385.677 798.167" enable-background="new 0 0 1385.677 798.167"
	 xml:space="preserve">
<path opacity="0.9" fill="#1A81C6" d="M398.976,398.733L127.04,107.118C202.735,36.53,295.475,0,398.976,0V398.733z"/>
<path opacity="0.9" fill="#146591" d="M398.976,398.733L84.769,644.219C-42.81,480.926-24.513,248.442,127.04,107.118
	L398.976,398.733z"/>
<path opacity="0.4" fill="#B0B0B0" d="M398.976,398.733l76.081,391.407c-152.398,29.624-294.705-23.583-390.288-145.922
	L398.976,398.733z"/>
<path opacity="0.6" fill="#8E8E8E" d="M398.976,398.733L665.78,102.416c163.65,147.353,176.864,399.471,29.513,563.122
	c-60.562,67.261-131.391,107.333-220.236,124.603L398.976,398.733z"/>
<path fill="#F4D80F" d="M398.976,398.733V0C502.477,0,588.864,33.161,665.78,102.416L398.976,398.733z"/>
<circle fill="#FFFFFF" cx="405.113" cy="399.439" r="193.536"/>
<circle opacity="0.9" fill="#146591" cx="1009.109" cy="209.73" r="32.362"/>
<text transform="matrix(1 0 0 1 1067.5127 225.4111)" fill="#6F6E6E" font-family="'Avenir-Light'" font-size="55">electricity</text>
<circle opacity="0.9" fill="#1A81C6" cx="1009.109" cy="305.688" r="32.362"/>
<g>
	<text transform="matrix(1 0 0 1 1067.5127 321.3682)" fill="#6F6E6E" font-family="'Avenir-Light'" font-size="55">electronics</text>
</g>
<circle fill="#F4D80F" cx="1009.852" cy="400.157" r="32.362"/>
<g>
	<text transform="matrix(1 0 0 1 1069.7432 415.8379)" fill="#6F6E6E" font-family="'Avenir-Light'" font-size="55">paper</text>
</g>
<circle opacity="0.6" fill="#8E8E8E" cx="1009.852" cy="498.345" r="32.362"/>
<g>
	<text transform="matrix(1 0 0 1 1069.7432 514.0254)" fill="#6F6E6E" font-family="'Avenir-Light'" font-size="55">transport</text>
</g>
<circle opacity="0.4" fill="#B0B0B0" cx="1010.968" cy="595.046" r="32.362"/>
<g>
	<text transform="matrix(1 0 0 1 1070.8594 610.7266)"><tspan x="0" y="0" fill="#6F6E6E" font-family="'Avenir-Light'" font-size="55">server</tspan><tspan x="0" y="57" fill="#6F6E6E" font-family="'Avenir-Light'" font-size="55">maintenance</tspan></text>
</g>
</svg>
