<?xml version="1.0" encoding="utf-8"?>
<!-- Generator: Adobe Illustrator 16.0.0, SVG Export Plug-In . SVG Version: 6.00 Build 0)  -->
<!DOCTYPE svg PUBLIC "-//W3C//DTD SVG 1.1//EN" "http://www.w3.org/Graphics/SVG/1.1/DTD/svg11.dtd">
<svg version="1.1" id="Layer_1" xmlns="http://www.w3.org/2000/svg" xmlns:xlink="http://www.w3.org/1999/xlink" x="0px" y="0px"
	 width="436px" height="150px" viewBox="0 0 436 150" enable-background="new 0 0 436 150" xml:space="preserve">
<g>
	<path fill="#009DE0" d="M50.621,119.073c-9.28,0-18.167-2.776-25.703-8.026c-0.927-0.646-1.155-1.921-0.509-2.848
		s1.922-1.155,2.848-0.509c6.845,4.77,14.924,7.292,23.363,7.292c10.729,0,20.87-4.091,28.556-11.518
		c7.929-7.663,12.296-17.909,12.296-28.851c0-10.538-4.099-20.486-11.541-28.012c-0.793-0.803-0.796-2.104,0.003-2.898
		c0.8-0.795,2.083-0.802,2.88-0.006c0.011,0.011,0.038,0.04,0.05,0.051c8.18,8.273,12.697,19.242,12.697,30.865
		c0,12.061-4.809,23.352-13.543,31.793C73.567,114.575,62.417,119.073,50.621,119.073z M20.146,106.429
		c-0.513,0-1.025-0.195-1.419-0.591c-0.011-0.01-0.055-0.055-0.065-0.066C10.481,97.499,5.963,86.529,5.963,74.907
		c0-12.062,4.811-23.354,13.544-31.795c8.451-8.169,19.603-12.667,31.398-12.667c9.289,0,18.182,2.78,25.722,8.042
		c0.927,0.646,1.154,1.921,0.508,2.848c-0.646,0.927-1.922,1.154-2.849,0.506c-6.849-4.779-14.935-7.305-23.381-7.305
		c-10.729,0-20.87,4.091-28.555,11.518c-7.929,7.664-12.296,17.911-12.296,28.853c0,10.539,4.099,20.486,11.539,28.011
		c0.792,0.802,0.804,2.112,0.005,2.907C21.195,106.227,20.67,106.429,20.146,106.429z"/>
</g>
<g>
	<path fill="#009DE0" d="M50.382,98.438c-0.923,0-1.846-0.053-2.769-0.157c-6.534-0.746-12.208-4.139-15.978-9.552
		c-2.344-3.367-3.793-6.96-4.305-10.677c-0.153-1.119,0.629-2.152,1.748-2.306c1.119-0.159,2.152,0.628,2.306,1.749
		c0.422,3.07,1.637,6.064,3.609,8.896c3.088,4.436,7.734,7.215,13.084,7.824c6.082,0.692,12.33-1.399,17.133-5.745
		c0.838-0.758,2.131-0.693,2.89,0.145c0.757,0.837,0.693,2.131-0.145,2.89C63.003,95.986,56.723,98.438,50.382,98.438z"/>
</g>
<g>
	<path fill="#009DE0" d="M62.338,79.821H29.86c-1.13,0-2.046-0.916-2.046-2.046c0-1.129,0.916-2.046,2.046-2.046h32.478
		c1.129,0,2.045,0.917,2.045,2.046C64.383,78.905,63.467,79.821,62.338,79.821z"/>
</g>
<g>
	<path fill="#009DE0" d="M29.361,73.81c-0.093,0-0.188-0.006-0.282-0.02c-1.119-0.154-1.901-1.186-1.747-2.306
		c0.53-3.848,2.027-7.552,4.329-10.713c3.732-5.12,9.233-8.478,15.491-9.46c6.259-0.982,12.524,0.532,17.644,4.263
		c1.074,0.784,2.088,1.66,3.012,2.605c0.79,0.808,0.776,2.103-0.032,2.892c-0.808,0.791-2.103,0.777-2.893-0.032
		c-0.766-0.782-1.606-1.509-2.497-2.157c-4.235-3.088-9.42-4.34-14.6-3.529c-5.179,0.812-9.731,3.591-12.818,7.828
		c-1.907,2.617-3.146,5.682-3.584,8.862C31.244,73.068,30.367,73.81,29.361,73.81z"/>
</g>
<g>
	<path fill="#009DE0" d="M72.281,73.864c-1.005,0-1.882-0.743-2.023-1.768c-0.438-3.181-1.678-6.245-3.584-8.862
		c-3.087-4.235-7.639-7.016-12.818-7.828c-5.177-0.812-10.363,0.44-14.6,3.527c-0.891,0.649-1.731,1.376-2.498,2.16
		c-0.788,0.807-2.083,0.822-2.892,0.032c-0.808-0.79-0.822-2.084-0.032-2.893c0.924-0.946,1.938-1.822,3.013-2.604
		c5.119-3.731,11.384-5.245,17.644-4.264c6.257,0.982,11.758,4.342,15.489,9.461c2.304,3.162,3.801,6.866,4.33,10.713
		c0.155,1.12-0.628,2.153-1.747,2.306C72.469,73.856,72.375,73.864,72.281,73.864z"/>
</g>
<g>
	<path fill="#009DE0" d="M37.484,73.913c-1.129,0-2.044-0.914-2.046-2.042c-0.002-1.129,0.913-2.047,2.042-2.048l34.801-0.051
		c0.001,0,0.003,0,0.003,0c1.128,0,2.044,0.914,2.046,2.042c0.001,1.131-0.913,2.047-2.043,2.05l-34.8,0.049
		C37.486,73.913,37.485,73.913,37.484,73.913z"/>
</g>
<g>
	<path fill="#575756" d="M172.592,109.042c0,0.711-0.276,1.309-0.824,1.793c-0.549,0.484-1.18,0.727-1.89,0.727
		c-1.1,0-1.973-0.519-2.616-1.552l-13.086-20.934c-1.875-2.972-3.796-5.008-5.767-6.107c-1.971-1.097-4.7-1.646-8.19-1.646h-13.278
		v27.041c0,0.969-0.276,1.729-0.823,2.277c-0.55,0.549-1.277,0.825-2.181,0.825c-0.906,0-1.633-0.276-2.181-0.825
		c-0.549-0.548-0.823-1.308-0.823-2.277V45.654c0-0.839,0.305-1.55,0.92-2.133c0.613-0.582,1.373-0.873,2.278-0.873h24.134
		c7.172,0,12.697,1.633,16.574,4.895c3.877,3.263,5.815,8.03,5.815,14.297c0,5.493-1.648,9.854-4.943,13.085
		s-7.947,5.104-13.957,5.62c1.55,0.519,2.971,1.374,4.265,2.569c1.291,1.196,2.616,2.859,3.974,4.992l12.019,19.287
		C172.398,107.976,172.592,108.525,172.592,109.042z M147.877,76.184c11.244,0,16.864-4.812,16.864-14.441
		c0-4.715-1.39-8.222-4.167-10.516c-2.779-2.293-7.013-3.441-12.697-3.441h-21.033v28.398H147.877z"/>
	<path fill="#575756" d="M222.653,101.627c0.419,0.484,0.63,1.05,0.63,1.696c0,1.421-1.1,2.812-3.296,4.167
		c-4.653,2.779-9.563,4.168-14.732,4.168c-7.173,0-12.827-2.164-16.961-6.494c-4.137-4.329-6.204-10.274-6.204-17.835
		c0-4.845,0.921-9.124,2.762-12.842c1.842-3.714,4.425-6.59,7.754-8.625c3.328-2.036,7.155-3.053,11.486-3.053
		c6.073,0,10.871,1.955,14.393,5.863c3.521,3.911,5.283,9.29,5.283,16.138c0,1.164-0.26,2.021-0.775,2.569
		c-0.519,0.549-1.357,0.823-2.52,0.823h-32.276c0.193,5.945,1.745,10.467,4.652,13.569c2.907,3.102,7.011,4.652,12.309,4.652
		c2.778,0,5.104-0.37,6.979-1.114c1.874-0.741,3.877-1.728,6.009-2.956c1.421-0.969,2.424-1.454,3.005-1.454
		S222.231,101.142,222.653,101.627z M193.237,71.92c-2.715,2.844-4.331,6.818-4.847,11.921h29.95
		c-0.13-5.168-1.422-9.159-3.877-11.97c-2.457-2.811-5.913-4.216-10.371-4.216C199.568,67.655,195.951,69.078,193.237,71.92z"/>
	<path fill="#575756" d="M242.57,108.655c-3.297-2.004-5.85-4.847-7.658-8.53c-1.811-3.684-2.715-7.915-2.715-12.697
		c0-4.847,0.923-9.125,2.763-12.842c1.842-3.715,4.426-6.606,7.754-8.676c3.327-2.067,7.156-3.101,11.486-3.101
		c2.453,0,4.847,0.324,7.172,0.969c2.325,0.646,4.393,1.616,6.203,2.907c1.162,0.841,1.986,1.6,2.472,2.278
		c0.483,0.679,0.726,1.406,0.726,2.181c0,0.711-0.193,1.292-0.579,1.744c-0.389,0.453-0.874,0.678-1.456,0.678
		c-0.646,0-1.681-0.548-3.101-1.647c-1.681-1.227-3.362-2.195-5.04-2.908c-1.681-0.71-3.717-1.066-6.106-1.066
		c-5.04,0-8.981,1.729-11.824,5.186c-2.844,3.457-4.265,8.222-4.265,14.295c0,6.008,1.404,10.679,4.216,14.006
		c2.811,3.328,6.736,4.99,11.776,4.99c2.455,0,4.507-0.354,6.154-1.065c1.648-0.71,3.441-1.68,5.378-2.908
		c0.582-0.387,1.148-0.741,1.697-1.065c0.548-0.323,0.983-0.485,1.31-0.485c0.645,0,1.162,0.227,1.551,0.679
		c0.386,0.453,0.581,1.002,0.581,1.648c0,0.775-0.227,1.453-0.678,2.035c-0.454,0.582-1.326,1.324-2.618,2.229
		c-1.743,1.294-3.862,2.312-6.348,3.054c-2.489,0.743-4.961,1.115-7.414,1.115C249.677,111.659,245.863,110.658,242.57,108.655z"/>
	<path fill="#575756" d="M317.926,101.627c0.42,0.484,0.629,1.05,0.629,1.696c0,1.421-1.098,2.812-3.294,4.167
		c-4.653,2.779-9.564,4.168-14.731,4.168c-7.173,0-12.828-2.164-16.962-6.494c-4.138-4.329-6.204-10.274-6.204-17.835
		c0-4.845,0.921-9.124,2.764-12.842c1.84-3.714,4.425-6.59,7.754-8.625c3.324-2.036,7.154-3.053,11.484-3.053
		c6.072,0,10.87,1.955,14.394,5.863c3.521,3.911,5.282,9.29,5.282,16.138c0,1.164-0.259,2.021-0.775,2.569
		c-0.52,0.549-1.357,0.823-2.521,0.823H283.47c0.193,5.945,1.743,10.467,4.65,13.569c2.91,3.102,7.011,4.652,12.312,4.652
		c2.777,0,5.104-0.37,6.979-1.114c1.872-0.741,3.875-1.728,6.008-2.956c1.42-0.969,2.422-1.454,3.004-1.454
		S317.507,101.142,317.926,101.627z M288.51,71.92c-2.714,2.844-4.329,6.818-4.847,11.921h29.949
		c-0.13-5.168-1.422-9.159-3.876-11.97c-2.456-2.811-5.912-4.216-10.371-4.216C294.842,67.655,291.224,69.078,288.51,71.92z"/>
	<path fill="#575756" d="M330.331,50.888c-0.808-0.775-1.213-1.776-1.213-3.005c0-1.291,0.405-2.325,1.213-3.101
		s1.856-1.164,3.15-1.164c1.292,0,2.342,0.388,3.149,1.164s1.212,1.811,1.212,3.101c0,1.229-0.404,2.23-1.212,3.005
		c-0.808,0.775-1.857,1.163-3.149,1.163C332.188,52.051,331.139,51.663,330.331,50.888z M331.301,110.689
		c-0.552-0.516-0.825-1.259-0.825-2.229V66.007c0-0.968,0.273-1.711,0.825-2.229c0.547-0.517,1.275-0.775,2.181-0.775
		c0.904,0,1.613,0.258,2.133,0.775c0.517,0.518,0.774,1.26,0.774,2.229v42.453c0,0.97-0.258,1.713-0.774,2.229
		c-0.52,0.517-1.229,0.776-2.133,0.776C332.576,111.465,331.848,111.206,331.301,110.689z"/>
	<path fill="#575756" d="M384.172,65.862c3.163,2.036,5.619,4.912,7.364,8.625c1.745,3.718,2.618,8.031,2.618,12.94
		c0,4.847-0.873,9.095-2.618,12.745c-1.745,3.651-4.201,6.478-7.364,8.482c-3.169,2.003-6.82,3.004-10.955,3.004
		c-3.812,0-7.107-0.824-9.885-2.472c-2.78-1.647-4.878-4.053-6.301-7.22v23.941c0,0.903-0.259,1.63-0.775,2.179
		c-0.516,0.55-1.227,0.825-2.132,0.825c-0.906,0-1.631-0.275-2.18-0.825c-0.551-0.549-0.825-1.276-0.825-2.179v-59.9
		c0-0.903,0.274-1.63,0.825-2.181c0.549-0.548,1.273-0.823,2.18-0.823c0.905,0,1.616,0.275,2.132,0.823
		c0.517,0.551,0.775,1.278,0.775,2.181v6.495c1.423-3.166,3.521-5.573,6.301-7.222c2.777-1.647,6.072-2.471,9.885-2.471
		C377.352,62.81,381.003,63.826,384.172,65.862z M383.929,101.434c2.745-3.328,4.119-7.998,4.119-14.006
		c0-6.138-1.374-10.918-4.119-14.345c-2.748-3.423-6.577-5.136-11.486-5.136c-4.911,0-8.706,1.681-11.389,5.04
		c-2.682,3.36-4.022,8.11-4.022,14.248c0,6.139,1.324,10.873,3.975,14.2c2.649,3.328,6.428,4.99,11.341,4.99
		C377.32,106.424,381.181,104.762,383.929,101.434z"/>
	<path fill="#575756" d="M428.95,109.042c0,0.775-0.292,1.391-0.875,1.841c-0.579,0.451-1.519,0.645-2.81,0.582l-2.713-0.195
		c-4.911-0.322-8.548-1.824-10.903-4.507c-2.36-2.681-3.539-6.768-3.539-12.26V68.722h-7.366c-0.774,0-1.391-0.209-1.842-0.631
		c-0.452-0.419-0.679-0.984-0.679-1.695c0-0.711,0.227-1.292,0.679-1.744c0.451-0.452,1.067-0.679,1.842-0.679h7.366V51.954
		c0-0.97,0.258-1.711,0.774-2.23c0.518-0.516,1.228-0.775,2.133-0.775s1.631,0.26,2.182,0.775c0.548,0.519,0.824,1.26,0.824,2.23
		v12.018h11.728c0.838,0,1.485,0.227,1.938,0.679c0.451,0.453,0.678,1.033,0.678,1.744c0,0.711-0.227,1.276-0.678,1.695
		c-0.453,0.422-1.101,0.631-1.938,0.631h-11.728v26.073c0,4.006,0.775,6.865,2.326,8.576c1.55,1.713,3.975,2.7,7.269,2.957
		l2.618,0.195C428.044,106.715,428.95,107.555,428.95,109.042z"/>
</g>
<path fill="none" stroke="#009DE0" stroke-width="4" stroke-miterlimit="10" d="M856.817,76.617
	c0,24.079-19.519,43.599-43.599,43.599c-24.078,0-43.598-19.52-43.598-43.599c0-24.078,19.52-43.598,43.598-43.598
	C837.299,33.019,856.817,52.539,856.817,76.617"/>
<path fill="none" stroke="#009DE0" stroke-width="4" stroke-linecap="round" stroke-miterlimit="10" d="M821.156,75.729
	c7.848,3.148,13.39,10.828,13.39,19.8l-21.327,0.201l-21.326-0.201c0-4.703,1.523-9.054,4.106-12.581"/>
<circle fill="none" stroke="#009DE0" stroke-width="4" stroke-linecap="round" stroke-miterlimit="10" cx="812.608" cy="64.596" r="12.76"/>
</svg>
